<svg width="32" height="32" viewBox="0 0 32 32" fill="none" xmlns="http://www.w3.org/2000/svg">
<path d="M31.1911 3.04761L31.69 3.01453C31.6767 2.81396 31.5445 2.64085 31.3546 2.57511C31.1646 2.50936 30.9538 2.56376 30.8193 2.7132L31.1911 3.04761ZM29.5175 9.48876C29.5175 9.21262 29.2937 8.98876 29.0175 8.98876C28.7414 8.98876 28.5175 9.21262 28.5175 9.48876H29.5175ZM16 11.4286V11.9286H16.5V11.4286H16ZM2.93541 3.04761L3.40367 2.87228C3.3339 2.68595 3.16029 2.55871 2.96159 2.54829C2.7629 2.53788 2.57693 2.64626 2.48806 2.82428L2.93541 3.04761ZM11.4286 22.8571L11.7824 23.2104C11.9048 23.0879 11.955 22.9107 11.9152 22.7422C11.8754 22.5736 11.7512 22.4377 11.5869 22.3829L11.4286 22.8571ZM0.761902 26.9932V26.4932C0.541634 26.4932 0.347313 26.6373 0.283408 26.8481C0.219502 27.0589 0.301069 27.2867 0.484255 27.409L0.761902 26.9932ZM27.3547 5.16653L26.9838 5.50187L27.164 5.70112L27.4295 5.66089L27.3547 5.16653ZM30.6922 3.08068C30.8064 4.80343 30.7076 5.92571 30.3935 6.81126C30.0831 7.68636 29.5444 8.38089 28.6716 9.21721L29.3635 9.93923C30.2868 9.0545 30.9507 8.23159 31.336 7.14559C31.7175 6.07003 31.8075 4.78753 31.69 3.01453L30.6922 3.08068ZM29.5175 11.0748V9.57822H28.5175V11.0748H29.5175ZM29.5175 9.57822V9.48876H28.5175V9.57822H29.5175ZM15.5 9.90475V11.4286H16.5V9.90475H15.5ZM22.5863 2.54761C18.6342 2.54761 15.5 5.99859 15.5 9.90475H16.5C16.5 6.49858 19.2374 3.54761 22.5863 3.54761V2.54761ZM28.5175 11.0748C28.5175 20.8022 20.3591 29.2143 10.6667 29.2143V30.2143C20.9309 30.2143 29.5175 21.3348 29.5175 11.0748H28.5175ZM2.46716 3.22293C3.60567 6.26364 7.91189 11.9286 16 11.9286V10.9286C8.43883 10.9286 4.43867 5.63656 3.40367 2.87228L2.46716 3.22293ZM2.48806 2.82428C0.267451 7.27236 -0.0911589 11.5631 1.42272 15.186C2.9366 18.8088 6.28216 21.6661 11.2702 23.3314L11.5869 22.3829C6.79417 20.7828 3.71965 18.0891 2.3454 14.8004C0.97114 11.5117 1.25635 7.53033 3.38277 3.27094L2.48806 2.82428ZM11.0747 22.5039C9.69694 23.8838 5.8167 26.4932 0.761902 26.4932V27.4932C6.13996 27.4932 10.2622 24.733 11.7824 23.2104L11.0747 22.5039ZM27.7255 4.83119C26.4581 3.42946 24.6248 2.54761 22.5863 2.54761V3.54761C24.3301 3.54761 25.8978 4.30077 26.9838 5.50187L27.7255 4.83119ZM27.4295 5.66089C28.9452 5.43135 30.4386 4.63167 31.5628 3.38201L30.8193 2.7132C29.8439 3.79747 28.5576 4.47864 27.2798 4.67217L27.4295 5.66089ZM0.484255 27.409C3.85277 29.6582 7.09248 30.2143 10.6667 30.2143V29.2143C7.21648 29.2143 4.19156 28.6819 1.03955 26.5774L0.484255 27.409Z" fill="#F2F2F2"/>
</svg>
